 http://img262.imageshack.us/img262/6214/kingdomofgladiators2011.jpg

Country.......: USA, Italy
Genre.........: Fantasy, Adventure, Action
Date release..: 27.01.2011 [World]
Director......: Stefano Milla
Writers.......: Stefano Milla, Marco Viola
Duration......: 81 min.
More..........: http://www.imdb.com/title/tt1786497
Trailer.......:

Pilot :
A king makes a pact with an ancient demon and after years of ruling his kingdom in peace, the demon has come to collect. Now a group of rival gladiators must fight for the survival of the kingdom. 

Cats :
Maurizio Corigliano   	  	
Sharon Fryer 		
Leroy Kincaid 	... 	Kayne
Suzi Lorraine 	... 	Hel
Bryan Murphy 	... 	King Wolfkahn
Matt Polinsky 	... 	Gunnar
Annie Social 	... 	Teela

Data Technical :
!!! SAMPLE !!!
Audio.....: English
Subtitles.: None
Format                           : AVI
Format/Info                      : Audio Video Interleave
File size                        : 695 MiB
Duration                         : 1h 20mn
Overall bit rate                 : 1 200 Kbps
Writing application              : VirtualDubMod 1.5.10.2 (build 2540/release)
Writing library                  : VirtualDubMod build 2540/release
Video
ID                               : 0
Format                           : MPEG-4 Visual
Format profile                   : Advanced Simple@L5
Format settings, BVOP            : Yes
Format settings, QPel            : No
Format settings, GMC             : No warppoints
Format settings, Matrix          : Default (H.263)
Muxing mode                      : Packed bitstream
Codec ID                         : XVID
Codec ID/Hint                    : XviD
Duration                         : 1h 20mn
Bit rate                         : 1 061 Kbps
Width                            : 592 pixels
Height                           : 320 pixels
Display aspect ratio             : 1.850
Frame rate                       : 25.000 fps
Color space                      : YUV
Chroma subsampling               : 4:2:0
Bit depth                        : 8 bits
Scan type                        : Progressive
Bits/(Pixel*Frame)               : 0.224
Stream size                      : 614 MiB (88%)
Writing library                  : XviD 1.2.1 (UTC 2008-12-04)
Audio
ID                               : 1
Format                           : MPEG Audio
Format version                   : Version 1
Format profile                   : Layer 3
Mode                             : Joint stereo
Mode extension                   : MS Stereo
Codec ID                         : 55
Codec ID/Hint                    : MP3
Duration                         : 1h 20mn
Bit rate mode                    : Variable
Bit rate                         : 128 Kbps
Channel(s)                       : 2 channels
Sampling rate                    : 48.0 KHz
Stream size                      : 73.3 MiB (11%)
Alignment                        : Aligned on interleaves
Interleave, duration             : 24 ms (0.60 video frame)
Interleave, preload duration     : 145 ms
Writing library                  : LAME3.90.
Encoding settings                : -m j -V 4 -q 2 -lowpass 17.6 --abr 128

Screen : 
http://img135.imageshack.us/img135/6214/kingdomofgladiators2011.jpg 
http://img33.imageshack.us/img33/6214/kingdomofgladiators2011.jpg 
http://img225.imageshack.us/img225/6214/kingdomofgladiators2011.jpg 
http://img542.imageshack.us/img542/6214/kingdomofgladiators2011.jpg 
http://img535.imageshack.us/img535/6214/kingdomofgladiators2011.jpg